<svg xmlns="http://www.w3.org/2000/svg" width="24" height="24" fill="none" viewBox="0 0 24 24" id="line-up"><path fill="#1983F6" d="M19 2H5C3.35 2 2 3.35 2 5V19C2 20.65 3.35 22 5 22H19C20.65 22 22 20.65 22 19V5C22 3.35 20.65 2 19 2ZM20 19C20 19.55 19.55 20 19 20H5C4.45 20 4 19.55 4 19V5C4 4.45 4.45 4 5 4H19C19.55 4 20 4.45 20 5V19Z"></path><path fill="#1983F6" fill-opacity=".2" d="M19 4H5C4.45 4 4 4.45 4 5V19C4 19.55 4.45 20 5 20H19C19.55 20 20 19.55 20 19V5C20 4.45 19.55 4 19 4ZM18.92 9.38C18.77 9.76 18.4 10 18 10H16V12C16 15.86 12.86 19 9 19H6C5.45 19 5 18.55 5 18C5 17.45 5.45 17 6 17H9C11.76 17 14 14.76 14 12V10H12C11.6 10 11.23 9.76 11.08 9.38C10.92 9.01 11.01 8.58 11.29 8.29L14.29 5.29C14.68 4.9 15.32 4.9 15.71 5.29L18.71 8.29C18.99 8.58 19.08 9.01 18.92 9.38V9.38Z"></path><path fill="#1983F6" d="M18.92 9.38C18.77 9.76 18.4 10 18 10H16V12C16 15.86 12.86 19 9 19H6C5.45 19 5 18.55 5 18C5 17.45 5.45 17 6 17H9C11.76 17 14 14.76 14 12V10H12C11.6 10 11.23 9.76 11.08 9.38C10.92 9.01 11.01 8.58 11.29 8.29L14.29 5.29C14.68 4.9 15.32 4.9 15.71 5.29L18.71 8.29C18.99 8.58 19.08 9.01 18.92 9.38Z"></path></svg>